<?xml version="1.0" encoding="UTF-8"?>
<svg xmlns="http://www.w3.org/2000/svg" xmlns:xlink="http://www.w3.org/1999/xlink" width="368.5pt" height="563.34pt" viewBox="0 0 368.5 563.34" version="1.1">
<defs>
<clipPath id="clip1">
  <path d="M 184 0.25 L 368.246094 0.25 L 368.246094 562.507813 L 184 562.507813 Z M 184 0.25 "/>
</clipPath>
<clipPath id="clip2">
  <path d="M 0.25 0.25 L 185 0.25 L 185 562.507813 L 0.25 562.507813 Z M 0.25 0.25 "/>
</clipPath>
<clipPath id="clip3">
  <path d="M 113 529 L 128 529 L 128 563.339844 L 113 563.339844 Z M 113 529 "/>
</clipPath>
<clipPath id="clip4">
  <path d="M 171 500 L 270 500 L 270 563.339844 L 171 563.339844 Z M 171 500 "/>
</clipPath>
</defs>
<g id="surface1">
<g clip-path="url(#clip1)" clip-rule="nonzero">
<path style=" stroke:none;fill-rule:nonzero;fill:rgb(12.89978%,66.299438%,88.198853%);fill-opacity:1;" d="M 366.765625 94.460938 C 366.765625 94.460938 368.625 131.148438 364.183594 144.539063 C 348.265625 159.777344 305.703125 194.378906 305.703125 194.378906 C 303.882813 195.75 302.714844 197.921875 302.714844 200.371094 C 302.714844 204.5 306.0625 207.851563 310.195313 207.851563 C 311.742188 207.851563 313.253906 207.46875 314.375 206.570313 C 328.792969 195.058594 366.644531 166.121094 366.644531 166.121094 C 366.644531 166.121094 370.09375 199.527344 363.664063 220.761719 C 345.714844 237.777344 295.84375 269.429688 287.8125 278.539063 C 287.625 301.21875 287.714844 555.320313 287.714844 555.320313 C 287.714844 559.289063 285.234375 562.507813 281.8125 562.507813 C 279.285156 562.507813 276.59375 560.871094 276.144531 558.191406 C 258.574219 481.539063 227.222656 391.351563 184.242188 360.558594 C 225.054688 333.847656 279.445313 285.359375 279.445313 285.359375 C 279.445313 285.359375 287.8125 278.539063 284.535156 267.628906 C 255.773438 154.890625 187.292969 146.078125 187.292969 146.078125 L 187.292969 142.171875 C 244.09375 91.589844 303.753906 44.238281 366.382813 0.25 C 366.382813 0.25 371.773438 59.570313 364.222656 73.480469 C 327.683594 104.988281 263.203125 156.171875 263.203125 156.171875 C 262.125 157.46875 261.484375 159.140625 261.484375 160.960938 C 261.484375 165.121094 264.855469 168.488281 269.015625 168.488281 C 270.875 168.488281 272.523438 167.769531 273.875 166.710938 C 288.132813 155.539063 366.765625 94.460938 366.765625 94.460938 "/>
</g>
<path style=" stroke:none;fill-rule:nonzero;fill:rgb(8.599854%,45.899963%,73.298645%);fill-opacity:1;" d="M 284.535156 267.628906 C 287.8125 278.539063 279.445313 285.359375 279.445313 285.359375 C 279.445313 285.359375 225.054688 333.851563 184.242188 360.558594 C 143.445313 333.851563 89.042969 285.359375 89.042969 285.359375 C 89.042969 285.359375 80.671875 278.539063 83.953125 267.628906 C 112.714844 154.890625 181.203125 146.078125 181.203125 146.078125 L 181.203125 257.328125 C 177.183594 258.621094 174.273438 262.378906 174.273438 266.828125 C 174.273438 272.339844 178.734375 276.808594 184.242188 276.808594 C 189.753906 276.808594 194.222656 272.339844 194.222656 266.828125 C 194.222656 262.378906 191.3125 258.621094 187.292969 257.328125 L 187.292969 146.078125 C 187.292969 146.078125 255.773438 154.890625 284.535156 267.628906 "/>
<g clip-path="url(#clip2)" clip-rule="nonzero">
<path style=" stroke:none;fill-rule:nonzero;fill:rgb(12.89978%,66.299438%,88.198853%);fill-opacity:1;" d="M 181.203125 142.171875 L 181.203125 146.078125 C 181.203125 146.078125 112.714844 154.890625 83.953125 267.628906 C 80.671875 278.539063 89.042969 285.359375 89.042969 285.359375 C 89.042969 285.359375 143.445313 333.851563 184.242188 360.558594 C 141.273438 391.347656 109.925781 481.539063 92.34375 558.191406 C 91.902344 560.871094 89.214844 562.507813 86.671875 562.507813 C 83.265625 562.507813 80.785156 559.289063 80.785156 555.320313 C 80.785156 555.320313 80.875 301.21875 80.671875 278.539063 C 72.652344 269.429688 22.785156 237.777344 4.824219 220.761719 C -1.597656 199.527344 1.84375 166.121094 1.84375 166.121094 C 1.84375 166.121094 39.703125 195.058594 54.113281 206.570313 C 55.242188 207.46875 56.742188 207.851563 58.292969 207.851563 C 62.433594 207.851563 65.785156 204.5 65.785156 200.371094 C 65.785156 197.921875 64.605469 195.75 62.792969 194.378906 C 62.792969 194.378906 20.222656 159.777344 4.304688 144.539063 C -0.136719 131.148438 1.734375 94.460938 1.734375 94.460938 C 1.734375 94.460938 80.355469 155.539063 94.613281 166.710938 C 95.964844 167.769531 97.625 168.488281 99.472656 168.488281 C 103.632813 168.488281 107.015625 165.121094 107.015625 160.960938 C 107.015625 159.140625 106.363281 157.46875 105.292969 156.171875 C 105.292969 156.171875 40.8125 104.988281 4.273438 73.480469 C -3.277344 59.570313 2.113281 0.25 2.113281 0.25 C 64.734375 44.238281 124.394531 91.589844 181.203125 142.171875 "/>
</g>
<path style=" stroke:none;fill-rule:nonzero;fill:rgb(13.299561%,11.799622%,12.199402%);fill-opacity:1;" d="M 115.558594 510.109375 C 116.03125 509.679688 116.679688 509.167969 117.507813 508.582031 C 118.332031 507.996094 119.21875 507.449219 120.160156 506.9375 C 121.105469 506.429688 122.050781 506.003906 122.992188 505.660156 C 123.914063 505.328125 124.550781 505.042969 124.898438 504.804688 C 125.226563 504.632813 125.425781 504.445313 125.496094 504.246094 C 125.5625 504.078125 125.421875 503.820313 125.085938 503.46875 C 124.757813 503.085938 124.703125 502.738281 124.925781 502.421875 C 127.265625 500.148438 128.714844 498.75 129.273438 498.226563 C 130.011719 497.6875 130.601563 497.523438 131.042969 497.738281 C 132.433594 498.621094 133.449219 499.511719 134.089844 500.40625 C 134.730469 501.339844 134.933594 502.128906 134.695313 502.769531 C 134.34375 503.714844 133.574219 504.550781 132.386719 505.269531 C 131.183594 506.074219 130.0625 506.542969 129.023438 506.675781 C 128.113281 506.789063 126.84375 507 125.21875 507.308594 C 123.59375 507.617188 122.390625 507.910156 121.609375 508.191406 C 120.828125 508.476563 119.953125 508.882813 118.992188 509.421875 C 118.027344 509.957031 117.410156 510.382813 117.136719 510.699219 C 116.722656 510.785156 116.410156 510.792969 116.203125 510.714844 C 116 510.640625 115.78125 510.4375 115.558594 510.109375 "/>
<g clip-path="url(#clip3)" clip-rule="nonzero">
<path style=" stroke:none;fill-rule:nonzero;fill:rgb(13.299561%,11.799622%,12.199402%);fill-opacity:1;" d="M 126.976563 546.519531 C 126.945313 547.480469 126.78125 548.773438 126.488281 550.402344 C 126.195313 552.027344 125.9375 553.183594 125.71875 553.867188 C 125.5 554.550781 125.164063 555.382813 124.71875 556.371094 C 124.269531 557.355469 123.714844 558.363281 123.046875 559.398438 C 122.378906 560.429688 121.519531 561.347656 120.472656 562.144531 C 119.421875 562.941406 118.292969 563.339844 117.089844 563.339844 C 116.453125 563.339844 115.921875 563.164063 115.488281 562.816406 C 115.058594 562.464844 114.671875 561.972656 114.328125 561.335938 C 114.054688 560.785156 113.898438 560.214844 113.867188 559.628906 C 113.851563 559.484375 113.871094 559.394531 113.929688 559.359375 C 113.984375 559.328125 114.046875 559.304688 114.109375 559.289063 C 114.566406 559.15625 114.921875 558.824219 115.183594 558.285156 C 115.492188 557.652344 115.730469 556.984375 115.894531 556.285156 C 116.054688 555.585938 116.167969 554.746094 116.234375 553.769531 C 116.300781 552.792969 116.332031 551.957031 116.332031 551.253906 L 116.332031 549.128906 C 116.332031 548.398438 116.339844 547.632813 116.355469 546.835938 C 116.40625 544.753906 116.640625 542.476563 117.0625 540 C 117.355469 538.308594 118.121094 536.003906 119.359375 533.089844 C 119.554688 532.683594 119.714844 532.488281 119.835938 532.503906 C 119.957031 532.523438 120.003906 532.636719 119.96875 532.847656 C 119.414063 534.734375 119.121094 537.769531 119.078125 541.953125 C 119.039063 546.136719 118.957031 548.90625 118.835938 550.265625 C 118.714844 551.625 118.453125 552.933594 118.066406 554.183594 C 117.511719 556.039063 116.765625 557.691406 115.820313 559.140625 C 116.503906 559.140625 117.175781 559.101563 117.835938 559.019531 C 118.492188 558.9375 119.121094 558.777344 119.714844 558.542969 C 120.308594 558.308594 120.855469 557.96875 121.363281 557.53125 C 121.867188 557.089844 122.300781 556.496094 122.667969 555.746094 C 123.035156 555 123.320313 554.082031 123.519531 553 C 123.726563 551.917969 123.835938 550.613281 123.851563 549.082031 C 123.851563 547.957031 123.84375 546.53125 123.828125 544.796875 C 123.8125 543.0625 123.859375 541.472656 123.972656 540.023438 C 124.089844 538.578125 124.503906 536.828125 125.21875 534.777344 C 125.933594 532.726563 126.617188 530.917969 127.269531 529.355469 C 127.382813 529.113281 127.476563 529.023438 127.550781 529.085938 C 127.621094 529.152344 127.628906 529.519531 127.5625 530.1875 C 127.203125 532.9375 127.050781 534.742188 127.097656 535.605469 "/>
</g>
<path style=" stroke:none;fill-rule:nonzero;fill:rgb(13.299561%,11.799622%,12.199402%);fill-opacity:1;" d="M 139.964844 548.789063 C 139.6875 548.886719 139.398438 548.949219 139.097656 548.972656 C 138.796875 548.996094 138.507813 549.023438 138.230469 549.058594 C 137.578125 549.089844 137.058594 549.246094 136.667969 549.519531 C 136.132813 549.894531 135.21875 550.984375 133.933594 552.792969 C 132.519531 554.894531 130.90625 555.941406 129.101563 555.941406 C 127.082031 555.941406 125.632813 555.0625 124.753906 553.304688 C 124.105469 551.742188 123.8125 549.976563 123.875 548.007813 C 124.054688 545.289063 124.421875 543.265625 124.976563 541.929688 C 125.5625 540.59375 126.113281 539.925781 126.636719 539.925781 C 126.75 539.925781 126.878906 540.035156 127.027344 540.246094 L 127.027344 542.492188 C 127.089844 543.207031 127.28125 544.039063 127.597656 544.980469 C 127.917969 545.925781 128.449219 546.6875 129.199219 547.273438 C 129.996094 547.8125 131.011719 548.082031 132.25 548.082031 C 134.039063 548.050781 135.398438 547.503906 136.328125 546.445313 C 137.253906 545.386719 137.953125 544.792969 138.425781 544.664063 C 138.703125 544.582031 139.011719 544.578125 139.355469 544.652344 C 139.695313 544.722656 139.996094 544.753906 140.257813 544.734375 C 141.070313 544.703125 141.800781 544.40625 142.441406 543.84375 C 143.085938 543.285156 143.660156 542.5625 144.164063 541.683594 C 144.179688 541.636719 144.214844 541.585938 144.261719 541.539063 C 144.359375 541.441406 144.472656 541.417969 144.605469 541.464844 C 144.878906 541.546875 145.128906 541.597656 145.347656 541.609375 C 145.566406 541.628906 145.789063 541.5625 146.007813 541.417969 C 146.226563 541.269531 146.460938 541.003906 146.703125 540.621094 C 146.945313 540.242188 147.230469 539.683594 147.558594 538.949219 C 147.800781 538.25 148.039063 537.957031 148.265625 538.070313 C 148.429688 538.105469 148.453125 538.476563 148.339844 539.195313 C 147.980469 540.773438 147.546875 542.054688 147.03125 543.039063 C 146.519531 544.023438 145.996094 544.730469 145.457031 545.164063 C 144.921875 545.59375 144.230469 545.917969 143.382813 546.128906 C 142.910156 546.648438 142.363281 547.15625 141.746094 547.652344 C 141.128906 548.148438 140.535156 548.527344 139.964844 548.789063 "/>
<path style=" stroke:none;fill-rule:nonzero;fill:rgb(13.299561%,11.799622%,12.199402%);fill-opacity:1;" d="M 152.410156 531.945313 L 154.648438 525.84375 C 154.835938 525.347656 154.996094 525.09375 155.125 525.089844 C 155.335938 525.078125 155.410156 525.230469 155.34375 525.542969 C 155.261719 525.886719 155.179688 526.484375 155.089844 527.328125 C 155.003906 528.171875 154.9375 528.828125 154.894531 529.304688 C 154.839844 530.136719 154.789063 531.078125 154.742188 532.121094 C 154.695313 533.167969 154.660156 534.242188 154.632813 535.34375 C 154.605469 536.445313 154.578125 537.515625 154.550781 538.5625 C 154.519531 539.605469 154.476563 540.542969 154.421875 541.378906 C 154.285156 543.914063 153.988281 546.007813 153.535156 547.667969 C 153.078125 549.328125 152.527344 550.871094 151.882813 552.296875 C 151.238281 553.722656 150.695313 554.480469 150.261719 554.566406 C 150.144531 554.570313 150.164063 554.277344 150.3125 553.683594 C 150.496094 553.121094 150.660156 552.417969 150.808594 551.582031 C 150.953125 550.742188 151.078125 549.84375 151.175781 548.886719 C 151.273438 547.925781 151.355469 546.945313 151.421875 545.9375 C 151.484375 544.933594 151.535156 543.984375 151.570313 543.085938 C 151.644531 542.234375 151.679688 540.964844 151.675781 539.277344 C 151.671875 537.59375 151.722656 536.160156 151.828125 534.980469 C 151.933594 533.800781 152.128906 532.789063 152.410156 531.945313 "/>
<path style=" stroke:none;fill-rule:nonzero;fill:rgb(13.299561%,11.799622%,12.199402%);fill-opacity:1;" d="M 153.929688 561.9375 C 154.355469 561.613281 154.859375 561.222656 155.445313 560.765625 C 157.007813 559.609375 158.3125 558.472656 159.363281 557.347656 C 160.414063 556.226563 160.96875 555.371094 161.035156 554.785156 C 161.164063 554.085938 160.773438 553.191406 159.863281 552.097656 C 158.953125 551.023438 157.867188 550.03125 156.617188 549.121094 C 156.519531 549.039063 156.464844 548.964844 156.457031 548.902344 C 156.449219 548.835938 156.460938 548.769531 156.492188 548.707031 L 157.640625 546.070313 L 159.253906 542.457031 C 159.382813 542.164063 159.5 541.921875 159.605469 541.734375 C 159.714844 541.546875 159.839844 541.503906 159.984375 541.601563 C 160.667969 542.171875 161.347656 542.785156 162.023438 543.445313 C 162.699219 544.101563 163.28125 544.859375 163.769531 545.714844 C 164.257813 546.570313 164.503906 547.679688 164.503906 549.046875 C 164.503906 550.644531 164.246094 552.175781 163.734375 553.648438 C 163.222656 555.121094 162.523438 556.648438 161.644531 558.226563 C 161.320313 558.796875 160.957031 559.3125 160.558594 559.777344 C 160.160156 560.242188 159.597656 560.644531 158.875 560.984375 C 158.148438 561.328125 156.59375 561.875 154.199219 562.621094 C 153.90625 562.703125 153.703125 562.703125 153.589844 562.621094 C 153.554688 562.589844 153.554688 562.511719 153.589844 562.390625 C 153.621094 562.265625 153.734375 562.117188 153.929688 561.9375 "/>
<path style=" stroke:none;fill-rule:nonzero;fill:rgb(13.299561%,11.799622%,12.199402%);fill-opacity:1;" d="M 172.089844 529.632813 L 174.425781 523.566406 C 174.621094 523.074219 174.78125 522.824219 174.910156 522.820313 C 175.121094 522.8125 175.195313 522.964844 175.121094 523.277344 C 175.035156 523.621094 174.941406 524.214844 174.839844 525.054688 C 174.738281 525.898438 174.664063 526.558594 174.613281 527.03125 C 174.546875 527.863281 174.480469 528.804688 174.417969 529.847656 C 174.355469 530.890625 174.300781 531.964844 174.257813 533.066406 C 174.210938 534.164063 174.167969 535.238281 174.121094 536.28125 C 174.074219 537.324219 174.015625 538.261719 173.949219 539.097656 C 173.769531 541.625 173.445313 543.71875 172.964844 545.371094 C 172.480469 547.023438 171.90625 548.558594 171.238281 549.972656 C 170.566406 551.386719 170.015625 552.136719 169.578125 552.214844 C 169.464844 552.21875 169.488281 551.925781 169.644531 551.332031 C 169.839844 550.773438 170.015625 550.074219 170.171875 549.238281 C 170.332031 548.402344 170.46875 547.507813 170.585938 546.550781 C 170.699219 545.59375 170.796875 544.613281 170.875 543.609375 C 170.953125 542.605469 171.019531 541.652344 171.070313 540.757813 C 171.15625 539.90625 171.210938 538.640625 171.238281 536.953125 C 171.261719 535.265625 171.335938 533.835938 171.457031 532.65625 C 171.578125 531.480469 171.792969 530.472656 172.089844 529.632813 "/>
<path style=" stroke:none;fill-rule:nonzero;fill:rgb(13.299561%,11.799622%,12.199402%);fill-opacity:1;" d="M 177.886719 507.835938 C 178.019531 508.308594 178.015625 508.796875 177.875 509.300781 C 177.734375 509.804688 177.480469 510.332031 177.105469 510.886719 C 176.878906 511.261719 176.636719 511.597656 176.386719 511.898438 C 176.132813 512.199219 175.867188 512.488281 175.59375 512.765625 C 175.511719 512.863281 175.378906 512.984375 175.203125 513.132813 C 175.023438 513.277344 174.835938 513.417969 174.640625 513.546875 C 174.445313 513.679688 174.257813 513.773438 174.078125 513.828125 C 173.898438 513.886719 173.769531 513.863281 173.6875 513.765625 C 173.101563 513.296875 172.523438 512.816406 171.953125 512.328125 C 171.386719 511.839844 170.757813 511.382813 170.074219 510.960938 C 169.960938 510.878906 169.910156 510.800781 169.914063 510.730469 C 169.925781 510.652344 169.96875 510.542969 170.050781 510.398438 L 173.957031 504.441406 C 174.070313 504.277344 174.183594 504.199219 174.296875 504.207031 C 174.414063 504.21875 174.535156 504.261719 174.664063 504.34375 C 175.007813 504.539063 175.347656 504.757813 175.691406 505.003906 C 176.03125 505.246094 176.351563 505.511719 176.644531 505.796875 C 176.9375 506.082031 177.191406 506.390625 177.410156 506.722656 C 177.632813 507.058594 177.789063 507.429688 177.886719 507.835938 M 182.585938 541.992188 C 181.886719 546.289063 181.253906 549.496094 180.691406 551.609375 C 180.132813 553.726563 179.621094 555.339844 179.167969 556.457031 C 178.710938 557.570313 178.210938 558.421875 177.664063 559.007813 C 177.121094 559.59375 176.121094 560.152344 174.664063 560.679688 C 173.207031 561.207031 171.988281 561.578125 171.015625 561.789063 C 170.035156 562.003906 169.425781 562.117188 169.183594 562.132813 C 168.9375 562.117188 168.785156 562.070313 168.71875 562 C 168.652344 561.925781 168.710938 561.75 168.890625 561.472656 C 169.199219 561.035156 169.84375 560.429688 170.828125 559.667969 C 171.8125 558.902344 172.980469 557.949219 174.320313 556.808594 C 175.664063 555.671875 176.671875 554.664063 177.335938 553.796875 C 178.003906 552.925781 178.59375 551.734375 179.105469 550.230469 C 179.621094 548.722656 180.121094 547.152344 180.609375 545.507813 C 181.097656 543.863281 181.449219 542.746094 181.671875 542.160156 C 181.890625 541.574219 182.113281 541.292969 182.339844 541.304688 C 182.601563 541.355469 182.683594 541.585938 182.585938 541.992188 "/>
<path style=" stroke:none;fill-rule:nonzero;fill:rgb(13.299561%,11.799622%,12.199402%);fill-opacity:1;" d="M 188.605469 529.632813 L 191.144531 523.648438 C 191.355469 523.160156 191.523438 522.917969 191.65625 522.917969 C 191.867188 522.917969 191.933594 523.070313 191.851563 523.382813 C 191.753906 523.722656 191.640625 524.3125 191.507813 525.152344 C 191.378906 525.988281 191.28125 526.644531 191.214844 527.117188 C 191.117188 527.945313 191.019531 528.882813 190.921875 529.925781 C 190.824219 530.964844 190.734375 532.035156 190.65625 533.136719 C 190.574219 534.234375 190.492188 535.304688 190.410156 536.34375 C 190.328125 537.386719 190.238281 538.320313 190.140625 539.152344 C 189.882813 541.675781 189.484375 543.753906 188.945313 545.390625 C 188.410156 547.027344 187.78125 548.539063 187.066406 549.933594 C 186.351563 551.320313 185.773438 552.050781 185.332031 552.117188 C 185.21875 552.117188 185.25 551.824219 185.429688 551.238281 C 185.640625 550.683594 185.839844 549.992188 186.027344 549.160156 C 186.214844 548.332031 186.382813 547.441406 186.527344 546.488281 C 186.675781 545.535156 186.804688 544.5625 186.917969 543.558594 C 187.03125 542.558594 187.132813 541.609375 187.210938 540.714844 C 187.324219 539.867188 187.425781 538.605469 187.503906 536.917969 C 187.585938 535.234375 187.707031 533.804688 187.871094 532.632813 C 188.035156 531.460938 188.277344 530.460938 188.605469 529.632813 M 199.914063 504.261719 C 200.730469 504.433594 201.527344 504.535156 202.300781 504.578125 C 203.074219 504.621094 203.867188 504.5625 204.6875 504.40625 C 205.507813 504.25 206.355469 503.976563 207.230469 503.589844 C 208.109375 503.199219 209.058594 502.652344 210.085938 501.941406 C 210.296875 501.800781 210.523438 501.628906 210.765625 501.425781 C 211.007813 501.222656 211.242188 501.027344 211.46875 500.839844 C 211.691406 500.648438 211.894531 500.496094 212.070313 500.375 C 212.246094 500.253906 212.367188 500.199219 212.433594 500.203125 C 212.578125 500.203125 212.65625 500.332031 212.660156 500.585938 C 212.667969 500.839844 212.554688 501.144531 212.320313 501.492188 C 211.847656 502.230469 211.203125 503.082031 210.386719 504.050781 C 209.570313 505.019531 208.695313 505.878906 207.765625 506.628906 C 206.042969 508.03125 204.445313 509.035156 202.972656 509.636719 C 201.5 510.238281 199.789063 510.476563 197.835938 510.347656 C 196.980469 510.257813 196.222656 510.152344 195.5625 510.042969 C 194.902344 509.929688 194.007813 509.84375 192.878906 509.777344 C 191.746094 509.714844 190.675781 509.839844 189.667969 510.15625 C 188.660156 510.476563 187.765625 510.847656 186.984375 511.269531 C 186.867188 511.289063 186.757813 511.289063 186.652344 511.269531 C 186.546875 511.25 186.480469 511.207031 186.457031 511.136719 C 186.414063 511.070313 186.53125 510.820313 186.808594 510.390625 C 187.167969 509.773438 187.78125 509.050781 188.648438 508.21875 C 189.515625 507.386719 190.617188 506.574219 191.957031 505.777344 C 193.296875 504.976563 194.546875 504.464844 195.707031 504.238281 C 196.867188 504.011719 198.273438 504.019531 199.914063 504.261719 "/>
<path style=" stroke:none;fill-rule:nonzero;fill:rgb(13.299561%,11.799622%,12.199402%);fill-opacity:1;" d="M 198.558594 554.507813 C 198.558594 553.761719 198.265625 553.140625 197.679688 552.652344 C 197.386719 552.394531 196.972656 552.109375 196.4375 551.800781 C 195.898438 551.488281 195.449219 551.3125 195.09375 551.261719 C 194.832031 551.261719 194.371094 551.726563 193.714844 552.652344 C 193.054688 553.582031 192.726563 554.355469 192.726563 554.972656 C 192.726563 556.179688 193.515625 556.78125 195.09375 556.78125 C 195.808594 556.78125 196.566406 556.546875 197.363281 556.082031 C 198.160156 555.621094 198.558594 555.09375 198.558594 554.507813 M 202.027344 548.820313 C 202.027344 549.878906 201.835938 551.058594 201.453125 552.359375 C 201.070313 553.664063 200.5625 554.84375 199.925781 555.902344 C 198.949219 557.578125 197.953125 558.855469 196.9375 559.734375 C 195.917969 560.613281 194.777344 561.050781 193.507813 561.050781 C 191.519531 561.050781 190.527344 559.953125 190.527344 557.757813 C 190.527344 557.007813 190.683594 556.195313 190.992188 555.316406 C 191.300781 554.4375 191.707031 553.605469 192.210938 552.824219 C 192.714844 552.042969 193.148438 551.382813 193.507813 550.847656 C 193.148438 550.75 192.929688 550.6875 192.847656 550.664063 C 192.765625 550.640625 192.699219 550.628906 192.652344 550.628906 C 192.601563 550.433594 193.660156 548.257813 195.824219 544.109375 C 196.152344 543.488281 196.417969 543.179688 196.632813 543.179688 C 196.890625 543.179688 197.296875 543.335938 197.851563 543.644531 C 198.40625 543.953125 199 544.351563 199.632813 544.839844 C 200.269531 545.328125 200.796875 545.875 201.222656 546.476563 C 201.644531 547.078125 201.914063 547.859375 202.027344 548.820313 "/>
<path style=" stroke:none;fill-rule:nonzero;fill:rgb(13.299561%,11.799622%,12.199402%);fill-opacity:1;" d="M 210.703125 542.589844 C 210.570313 544.21875 210.207031 545.601563 209.605469 546.742188 C 209.003906 547.878906 208.316406 548.449219 207.554688 548.449219 C 207.554688 547.832031 207.753906 545.910156 208.152344 542.6875 C 208.550781 539.464844 208.851563 537.15625 209.054688 535.765625 C 209.257813 534.375 209.488281 532.898438 209.75 531.335938 C 210.011719 529.773438 210.265625 528.511719 210.507813 527.550781 C 210.785156 526.753906 211.082031 525.949219 211.398438 525.132813 C 211.714844 524.320313 212.046875 523.515625 212.386719 522.71875 C 212.613281 522.359375 212.761719 522.417969 212.828125 522.886719 C 212.421875 525.589844 212.046875 528.394531 211.703125 531.296875 C 211.363281 534.203125 211.128906 536.285156 211.007813 537.535156 C 210.886719 538.789063 210.824219 539.523438 210.824219 539.734375 C 210.742188 541.070313 210.703125 542.023438 210.703125 542.589844 "/>
<path style=" stroke:none;fill-rule:nonzero;fill:rgb(13.299561%,11.799622%,12.199402%);fill-opacity:1;" d="M 233.703125 514.261719 C 233.265625 514.914063 232.449219 515.859375 231.265625 517.09375 C 230.074219 518.332031 228.089844 520.308594 225.308594 523.027344 C 225.210938 523.078125 225.214844 522.925781 225.316406 522.578125 C 225.425781 522.226563 225.640625 521.765625 225.964844 521.199219 C 226.617188 520.449219 227.589844 519.402344 228.882813 518.058594 C 230.179688 516.714844 231.953125 514.914063 234.21875 512.652344 C 234.671875 512.292969 234.503906 512.832031 233.703125 514.261719 M 219.078125 548.0625 C 219.078125 546.972656 218.199219 546.207031 216.441406 545.769531 C 215.511719 545.523438 214.4375 545.402344 213.21875 545.402344 C 212.386719 545.402344 211.785156 545.476563 211.410156 545.621094 C 210.417969 546.078125 209.921875 547.054688 209.921875 548.550781 C 209.921875 549.59375 210.148438 550.523438 210.605469 551.335938 C 211.238281 552.425781 212.242188 552.96875 213.609375 552.96875 C 215.171875 552.96875 216.480469 552.402344 217.539063 551.261719 C 218.5625 550.15625 219.078125 549.089844 219.078125 548.0625 M 222.488281 546.75 C 222.28125 546.75 222.046875 547.289063 221.789063 548.363281 C 221.476563 549.507813 221.230469 550.339844 221.058594 550.859375 C 219.863281 553.984375 218.90625 556.097656 218.195313 557.207031 C 216.566406 559.707031 214.460938 560.953125 211.875 560.953125 C 210.296875 560.953125 209.050781 560.222656 208.128906 558.757813 C 207.210938 557.289063 206.734375 555.214844 206.699219 552.527344 C 206.699219 552.472656 206.804688 551.371094 207.011719 549.222656 C 207.203125 547.316406 207.410156 546.039063 207.636719 545.398438 C 207.84375 544.097656 208.242188 543.054688 208.832031 542.277344 C 209.558594 541.253906 209.96875 540.679688 210.054688 540.558594 C 210.628906 540.089844 214.820313 535.96875 222.632813 528.1875 C 230.445313 520.410156 235.417969 514.945313 237.550781 511.785156 C 237.96875 511.109375 238.246094 510.773438 238.386719 510.773438 C 238.488281 510.804688 238.496094 510.988281 238.410156 511.316406 C 238.238281 512.183594 237.976563 513.070313 237.628906 513.972656 C 236.9375 515.636719 235.972656 517.421875 234.742188 519.332031 C 233.789063 520.910156 227.078125 528.011719 214.605469 540.636719 C 214.972656 540.707031 215.324219 540.808594 215.675781 540.949219 C 217.390625 541.589844 218.648438 542.242188 219.445313 542.898438 C 220.226563 543.542969 221.058594 544.511719 221.941406 545.8125 C 221.996094 545.917969 222.0625 546.046875 222.136719 546.203125 C 222.21875 546.359375 222.335938 546.542969 222.488281 546.75 "/>
<path style=" stroke:none;fill-rule:nonzero;fill:rgb(13.299561%,11.799622%,12.199402%);fill-opacity:1;" d="M 218.066406 511.253906 C 218.660156 511.652344 219.265625 512.046875 219.886719 512.433594 C 219.953125 512.476563 220.03125 512.507813 220.117188 512.53125 C 220.199219 512.554688 220.300781 512.546875 220.410156 512.511719 C 220.519531 512.472656 220.648438 512.398438 220.800781 512.28125 C 220.949219 512.164063 221.117188 511.984375 221.304688 511.734375 C 221.605469 511.371094 221.878906 510.992188 222.121094 510.59375 C 222.359375 510.199219 222.59375 509.777344 222.820313 509.324219 C 223.101563 508.765625 223.285156 508.238281 223.367188 507.738281 C 223.449219 507.238281 223.398438 506.765625 223.21875 506.328125 C 223.089844 505.949219 222.90625 505.617188 222.660156 505.324219 C 222.414063 505.03125 222.136719 504.765625 221.832031 504.523438 C 221.523438 504.277344 221.191406 504.066406 220.839844 503.886719 C 220.480469 503.703125 220.128906 503.535156 219.785156 503.378906 C 219.644531 503.3125 219.523438 503.28125 219.417969 503.285156 C 219.3125 503.289063 219.210938 503.371094 219.113281 503.53125 L 216.074219 509.625 C 216.007813 509.765625 215.980469 509.863281 215.984375 509.917969 C 215.992188 509.976563 216.039063 510.058594 216.136719 510.160156 C 216.828125 510.492188 217.472656 510.855469 218.066406 511.253906 "/>
<path style=" stroke:none;fill-rule:nonzero;fill:rgb(13.299561%,11.799622%,12.199402%);fill-opacity:1;" d="M 219.289063 517.136719 C 219.296875 517.191406 219.34375 517.273438 219.4375 517.378906 C 220.132813 517.707031 220.777344 518.070313 221.371094 518.472656 C 221.964844 518.871094 222.570313 519.265625 223.1875 519.652344 C 223.257813 519.691406 223.335938 519.726563 223.421875 519.75 C 223.503906 519.773438 223.601563 519.765625 223.714844 519.726563 C 223.824219 519.691406 223.953125 519.613281 224.105469 519.496094 C 224.253906 519.382813 224.421875 519.199219 224.605469 518.949219 C 224.910156 518.589844 225.183594 518.207031 225.425781 517.8125 C 225.664063 517.414063 225.898438 516.992188 226.125 516.539063 C 226.40625 515.984375 226.589844 515.453125 226.671875 514.953125 C 226.75 514.453125 226.703125 513.984375 226.519531 513.546875 C 226.394531 513.167969 226.210938 512.832031 225.964844 512.542969 C 225.71875 512.25 225.441406 511.984375 225.136719 511.738281 C 224.828125 511.496094 224.496094 511.285156 224.140625 511.101563 C 223.785156 510.921875 223.433594 510.753906 223.089844 510.597656 C 222.949219 510.53125 222.828125 510.5 222.722656 510.503906 C 222.613281 510.507813 222.511719 510.589844 222.417969 510.746094 L 219.378906 516.84375 C 219.3125 516.984375 219.28125 517.078125 219.289063 517.136719 "/>
<path style=" stroke:none;fill-rule:nonzero;fill:rgb(13.299561%,11.799622%,12.199402%);fill-opacity:1;" d="M 238.1875 535.699219 C 238.066406 535.792969 237.902344 535.882813 237.699219 535.960938 C 237.496094 536.042969 237.28125 536.007813 237.050781 535.851563 C 236.910156 535.785156 236.8125 535.769531 236.761719 535.796875 C 236.707031 535.832031 236.65625 535.921875 236.605469 536.074219 C 236.339844 536.890625 236.027344 537.484375 235.667969 537.851563 C 235.308594 538.222656 234.894531 538.433594 234.425781 538.488281 C 234.34375 538.496094 234.25 538.480469 234.140625 538.445313 C 234.027344 538.410156 233.941406 538.355469 233.886719 538.277344 C 233.722656 538.132813 233.574219 538.191406 233.4375 538.453125 C 233.175781 539.039063 232.910156 539.507813 232.628906 539.859375 C 232.351563 540.210938 231.976563 540.496094 231.511719 540.710938 C 231.242188 540.808594 231.003906 540.84375 230.796875 540.816406 C 230.589844 540.792969 230.417969 540.753906 230.28125 540.703125 C 229.9375 540.5625 229.53125 540.566406 229.066406 540.707031 C 228.597656 540.851563 228.226563 541.070313 227.949219 541.363281 C 227.59375 541.714844 227.261719 542.066406 226.949219 542.410156 C 226.699219 542.691406 226.425781 542.929688 226.152344 543.171875 C 226.03125 544.21875 226.953125 545.003906 227.359375 545.917969 C 227.476563 545.796875 227.578125 545.660156 227.714844 545.554688 C 227.96875 545.355469 228.253906 545.195313 228.566406 545.078125 C 228.882813 544.960938 229.238281 544.917969 229.636719 544.957031 C 230.117188 545 230.578125 544.910156 231.019531 544.6875 C 231.460938 544.464844 231.847656 544.164063 232.179688 543.78125 C 232.625 543.238281 232.953125 542.90625 233.171875 542.78125 C 233.382813 542.628906 233.617188 542.523438 233.871094 542.46875 C 234.128906 542.414063 234.40625 542.257813 234.703125 541.992188 C 235.074219 541.671875 235.394531 541.359375 235.652344 541.0625 C 235.914063 540.761719 236.207031 540.460938 236.535156 540.160156 C 236.933594 539.9375 237.296875 539.722656 237.617188 539.523438 C 237.9375 539.324219 238.242188 539.066406 238.535156 538.753906 C 238.636719 538.21875 238.671875 537.699219 238.640625 537.195313 C 238.605469 536.691406 238.453125 536.191406 238.1875 535.699219 "/>
<path style=" stroke:none;fill-rule:nonzero;fill:rgb(13.299561%,11.799622%,12.199402%);fill-opacity:1;" d="M 213.125 518.925781 C 213.472656 519.097656 213.828125 519.296875 214.199219 519.515625 L 214.382813 519.617188 L 215.945313 520.617188 L 216.214844 520.808594 L 216.847656 521.203125 C 216.886719 521.230469 216.925781 521.253906 216.96875 521.273438 C 217.011719 521.292969 217.066406 521.308594 217.132813 521.316406 C 217.234375 521.339844 217.351563 521.316406 217.480469 521.253906 C 217.613281 521.1875 217.765625 521.066406 217.941406 520.878906 L 218.054688 520.769531 L 218.269531 520.5 C 218.398438 520.355469 218.519531 520.199219 218.632813 520.039063 C 218.746094 519.878906 218.859375 519.71875 218.972656 519.558594 C 219.054688 519.417969 219.136719 519.28125 219.21875 519.148438 C 219.300781 519.015625 219.375 518.882813 219.441406 518.742188 L 219.785156 518.089844 L 220.023438 517.59375 L 220.136719 517.289063 C 220.164063 517.253906 220.179688 517.210938 220.183594 517.160156 C 220.1875 517.109375 220.195313 517.070313 220.207031 517.035156 L 220.261719 516.878906 L 220.324219 516.578125 C 220.320313 516.546875 220.324219 516.523438 220.328125 516.503906 C 220.335938 516.488281 220.339844 516.464844 220.335938 516.429688 C 220.367188 516.164063 220.367188 515.878906 220.335938 515.570313 C 220.328125 515.539063 220.324219 515.515625 220.3125 515.5 C 220.304688 515.484375 220.296875 515.460938 220.292969 515.425781 C 220.289063 515.394531 220.28125 515.363281 220.269531 515.332031 C 220.257813 515.300781 220.25 515.269531 220.246094 515.234375 C 220.226563 515.207031 220.214844 515.160156 220.207031 515.09375 L 220.109375 514.882813 C 220.066406 514.804688 220.027344 514.738281 220 514.675781 C 219.964844 514.613281 219.929688 514.542969 219.886719 514.464844 L 219.828125 514.375 L 219.566406 514.011719 L 219.398438 513.832031 C 219.246094 513.671875 219.09375 513.523438 218.929688 513.394531 C 218.769531 513.265625 218.589844 513.140625 218.394531 513.015625 L 218.105469 512.828125 C 217.878906 512.707031 217.648438 512.585938 217.425781 512.472656 C 217.199219 512.363281 216.972656 512.253906 216.746094 512.148438 C 216.714844 512.148438 216.683594 512.136719 216.644531 512.109375 C 216.578125 512.085938 216.535156 512.074219 216.519531 512.074219 L 216.46875 512.054688 C 216.316406 512.039063 216.195313 512.128906 216.105469 512.316406 L 213.039063 518.394531 C 212.972656 518.53125 212.945313 518.636719 212.953125 518.710938 C 212.960938 518.78125 213.019531 518.855469 213.125 518.925781 "/>
<path style=" stroke:none;fill-rule:nonzero;fill:rgb(13.299561%,11.799622%,12.199402%);fill-opacity:1;" d="M 253.0625 513.933594 C 253.191406 514.40625 253.1875 514.894531 253.050781 515.398438 C 252.910156 515.902344 252.65625 516.433594 252.28125 516.984375 C 252.050781 517.359375 251.8125 517.699219 251.558594 518 C 251.308594 518.300781 251.042969 518.589844 250.765625 518.867188 C 250.683594 518.960938 250.554688 519.085938 250.375 519.230469 C 250.195313 519.378906 250.011719 519.515625 249.816406 519.644531 C 249.621094 519.777344 249.433594 519.871094 249.253906 519.925781 C 249.074219 519.984375 248.945313 519.964844 248.863281 519.867188 C 248.277344 519.394531 247.699219 518.914063 247.128906 518.425781 C 246.558594 517.9375 245.933594 517.480469 245.25 517.058594 C 245.136719 516.976563 245.082031 516.898438 245.089844 516.828125 C 245.097656 516.753906 245.144531 516.644531 245.226563 516.496094 L 249.132813 510.539063 C 249.246094 510.378906 249.359375 510.300781 249.472656 510.308594 C 249.585938 510.316406 249.707031 510.363281 249.839844 510.441406 C 250.179688 510.636719 250.523438 510.855469 250.863281 511.101563 C 251.207031 511.34375 251.523438 511.609375 251.816406 511.894531 C 252.109375 512.179688 252.367188 512.488281 252.585938 512.824219 C 252.804688 513.15625 252.964844 513.527344 253.0625 513.933594 M 237.28125 539.824219 C 237.085938 539.300781 236.964844 538.789063 236.914063 538.285156 C 236.867188 537.78125 236.988281 537.269531 237.28125 536.746094 C 237.460938 536.601563 237.65625 536.417969 237.867188 536.199219 C 238.078125 535.976563 238.28125 535.753906 238.476563 535.527344 C 238.671875 535.296875 238.84375 535.070313 238.988281 534.84375 C 239.136719 534.617188 239.226563 534.417969 239.257813 534.257813 C 239.308594 533.996094 239.328125 533.707031 239.320313 533.390625 C 239.3125 533.074219 239.304688 532.75 239.296875 532.425781 C 239.285156 532.101563 239.285156 531.78125 239.296875 531.472656 C 239.304688 531.164063 239.355469 530.886719 239.453125 530.644531 C 239.535156 530.398438 239.6875 530.050781 239.917969 529.59375 L 242.40625 524.515625 C 242.488281 524.335938 242.582031 524.296875 242.6875 524.394531 C 242.796875 524.492188 242.847656 524.628906 242.847656 524.808594 C 242.734375 525.34375 242.667969 525.902344 242.652344 526.480469 C 242.636719 527.058594 242.625 527.636719 242.613281 528.214844 C 242.605469 528.792969 242.585938 529.367188 242.554688 529.933594 C 242.519531 530.503906 242.441406 531.058594 242.308594 531.59375 C 242.179688 532.3125 241.945313 533.0625 241.601563 533.855469 C 241.261719 534.644531 240.855469 535.40625 240.394531 536.148438 C 239.929688 536.890625 239.433594 537.578125 238.902344 538.210938 C 238.375 538.847656 237.867188 539.359375 237.378906 539.75 "/>
<path style=" stroke:none;fill-rule:nonzero;fill:rgb(13.299561%,11.799622%,12.199402%);fill-opacity:1;" d="M 244.335938 536.46875 L 246.875 530.488281 C 247.085938 529.996094 247.257813 529.753906 247.386719 529.753906 C 247.597656 529.753906 247.664063 529.910156 247.582031 530.21875 C 247.484375 530.558594 247.371094 531.148438 247.242188 531.988281 C 247.109375 532.824219 247.011719 533.480469 246.949219 533.953125 C 246.851563 534.78125 246.753906 535.71875 246.65625 536.761719 C 246.558594 537.800781 246.46875 538.871094 246.386719 539.972656 C 246.304688 541.070313 246.222656 542.140625 246.144531 543.179688 C 246.0625 544.222656 245.972656 545.160156 245.875 545.988281 C 245.613281 548.511719 245.214844 550.589844 244.679688 552.226563 C 244.140625 553.863281 243.515625 555.375 242.796875 556.769531 C 242.082031 558.160156 241.503906 558.886719 241.066406 558.953125 C 240.949219 558.953125 240.980469 558.660156 241.160156 558.074219 C 241.371094 557.523438 241.574219 556.828125 241.761719 556 C 241.945313 555.167969 242.113281 554.277344 242.261719 553.324219 C 242.40625 552.375 242.535156 551.398438 242.652344 550.394531 C 242.765625 549.394531 242.863281 548.445313 242.945313 547.550781 C 243.058594 546.707031 243.15625 545.441406 243.238281 543.753906 C 243.316406 542.070313 243.441406 540.640625 243.605469 539.46875 C 243.765625 538.296875 244.011719 537.296875 244.335938 536.46875 "/>
<path style=" stroke:none;fill-rule:nonzero;fill:rgb(13.299561%,11.799622%,12.199402%);fill-opacity:1;" d="M 247.589844 560.210938 C 248.011719 559.886719 248.519531 559.492188 249.105469 559.039063 C 250.664063 557.882813 251.972656 556.742188 253.023438 555.621094 C 254.070313 554.496094 254.628906 553.644531 254.695313 553.058594 C 254.824219 552.355469 254.433594 551.460938 253.523438 550.371094 C 252.609375 549.296875 251.527344 548.304688 250.277344 547.394531 C 250.179688 547.3125 250.125 547.238281 250.117188 547.171875 C 250.109375 547.109375 250.121094 547.042969 250.152344 546.976563 L 251.300781 544.339844 L 252.914063 540.726563 C 253.042969 540.433594 253.160156 540.195313 253.265625 540.007813 C 253.371094 539.820313 253.496094 539.773438 253.644531 539.871094 C 254.328125 540.441406 255.007813 541.058594 255.683594 541.71875 C 256.359375 542.375 256.941406 543.132813 257.429688 543.984375 C 257.917969 544.84375 258.160156 545.953125 258.160156 547.320313 C 258.160156 548.914063 257.902344 550.449219 257.394531 551.921875 C 256.878906 553.394531 256.183594 554.921875 255.304688 556.5 C 254.980469 557.070313 254.617188 557.585938 254.21875 558.050781 C 253.820313 558.515625 253.257813 558.914063 252.535156 559.257813 C 251.8125 559.601563 250.253906 560.144531 247.859375 560.894531 C 247.566406 560.976563 247.359375 560.976563 247.246094 560.894531 C 247.214844 560.859375 247.214844 560.78125 247.246094 560.660156 C 247.28125 560.539063 247.394531 560.390625 247.589844 560.210938 "/>
<path style=" stroke:none;fill-rule:nonzero;fill:rgb(13.299561%,11.799622%,12.199402%);fill-opacity:1;" d="M 227.957031 544.871094 C 226.929688 547.332031 226.132813 549.960938 219.285156 547.402344 "/>
<g clip-path="url(#clip4)" clip-rule="nonzero">
<path style="fill:none;stroke-width:30;stroke-linecap:butt;stroke-linejoin:miter;stroke:rgb(13.299561%,11.799622%,12.199402%);stroke-opacity:1;stroke-miterlimit:10;" d="M 2270.117188 189.259375 C 2262.578125 177.345312 2156.054688 199.923437 2135.976563 209.025 " transform="matrix(0.1,0,0,-0.1,0,563.34)"/>
</g>
<path style=" stroke:none;fill-rule:nonzero;fill:rgb(13.299561%,11.799622%,12.199402%);fill-opacity:1;" d="M 219.484375 546.199219 C 219.484375 546.769531 220.539063 547.230469 221.835938 547.230469 C 223.132813 547.230469 224.183594 546.769531 224.183594 546.199219 C 224.183594 545.632813 223.132813 545.171875 221.835938 545.171875 C 220.539063 545.171875 219.484375 545.632813 219.484375 546.199219 "/>
<path style=" stroke:none;fill-rule:nonzero;fill:rgb(13.299561%,11.799622%,12.199402%);fill-opacity:1;" d="M 117.136719 510.699219 C 116.125 511.683594 113.515625 512.5 117.136719 514.300781 C 130.832031 520.710938 186.542969 517.25 202.027344 515.632813 C 207.796875 516.273438 200.355469 518.886719 200.355469 518.886719 C 200.355469 518.886719 143.34375 529.671875 113.019531 520.910156 C 106.390625 518.460938 113.933594 511.40625 115.558594 510.109375 "/>
</g>
</svg>
